<svg version="1" xmlns="http://www.w3.org/2000/svg" width="256" height="256" viewBox="0 0 256 256"><path fill="#1c75bc" d="M0 0h256v256H0z"/><path d="M149.561 176.008H104.97l-7.84 33.811H54.01l48.51-159.25h50.96l48.51 159.25H157.4l-7.839-33.811zm-7.596-32.584l-2.695-11.025c-1.959-7.676-3.92-16.006-5.879-24.991-1.961-8.98-3.92-17.475-5.881-25.48h-.98a2865.156 2865.156 0 0 0-5.512 25.603c-1.88 8.904-3.798 17.192-5.758 24.868l-2.695 11.025h29.4z" fill="none" stroke="#fff" stroke-width="7" stroke-miterlimit="10"/><path d="M139.271 132.398l2.694 11.025h-29.4l.53-2.166-54.934 54.934-4.151 13.627h43.12l7.84-33.811h44.59l7.841 33.811h44.59L165.226 89.126l-29.344 29.343a664.27 664.27 0 0 0 3.389 13.929z" fill="#fff" stroke="#fff" stroke-width="7" stroke-miterlimit="10"/><path fill="none" stroke="#fff" stroke-width="10" stroke-miterlimit="10" d="M23.902 234.5l208.196-209"/></svg>