<?xml version="1.0" encoding="utf-8"?>
<!-- Generator: Adobe Illustrator 19.1.0, SVG Export Plug-In . SVG Version: 6.00 Build 0)  -->
<svg version="1.1" id="Layer_1" xmlns="http://www.w3.org/2000/svg" xmlns:xlink="http://www.w3.org/1999/xlink" x="0px" y="0px"
	 viewBox="-1375.5 1171.5 95 95" style="enable-background:new -1375.5 1171.5 95 95;" xml:space="preserve">
<style type="text/css">
	.st0{fill:#D22026;}
</style>
<path class="st0" d="M-1328,1171.5c-26.2,0-47.5,21.3-47.5,47.5s21.3,47.5,47.5,47.5s47.5-21.3,47.5-47.5
	S-1301.8,1171.5-1328,1171.5z M-1305.6,1236.3c1.4,1.4,1.4,3.7,0,5.1c-0.7,0.7-1.6,1.1-2.5,1.1s-1.8-0.4-2.5-1.1l-17.3-17.3
	l-17.3,17.3c-0.7,0.7-1.6,1.1-2.5,1.1s-1.8-0.4-2.5-1.1c-1.4-1.4-1.4-3.7,0-5.1l17.3-17.3l-17.3-17.3c-1.4-1.4-1.4-3.7,0-5.1
	c1.4-1.4,3.7-1.4,5.1,0l17.3,17.3l17.3-17.3c1.4-1.4,3.7-1.4,5.1,0s1.4,3.7,0,5.1l-17.3,17.3L-1305.6,1236.3z"/>
</svg>
