<?xml version="1.0" encoding="utf-8"?>
<!-- Generator: Adobe Illustrator 19.1.0, SVG Export Plug-In . SVG Version: 6.00 Build 0)  -->
<svg version="1.1" id="Layer_1" xmlns="http://www.w3.org/2000/svg" xmlns:xlink="http://www.w3.org/1999/xlink" x="0px" y="0px"
	 viewBox="-447 241 64 64" style="enable-background:new -447 241 64 64;" xml:space="preserve">
<path d="M-415,241c-17.7,0-32,14.3-32,32l0,0c0,17.7,14.3,32,32,32l0,0c17.7,0,32-14.3,32-32l0,0C-383,255.3-397.3,241-415,241
	L-415,241z M-415.6,256.5c3.9,0,6.4,0.5,9.2,2.9c0.9,0.9,1.9,2.1,2.4,3.4c1.5,3.4,0.5,5.9-1.5,8.2c-1.6,2.1-4.5,4-5.9,5.5
	c-0.9,1.1-1,2.5-1,4.6h-5.6c-0.1-0.5-0.2-0.4-0.2-0.8c0-4.9,1.5-6.9,5-9.6c1.9-1.4,3.8-2.9,3.8-5c0-4.5-6.9-5.6-9.8-2.6
	c-0.8,0.8-1.6,2.6-1.8,3.9c-0.2-0.1-5.1-0.8-5.8-0.8v-0.1c0-3.1,1.5-5.1,3.5-6.9C-421.7,257.8-418.6,256.5-415.6,256.5z M-418,283.2
	h6.2v6.2h-6.2V283.2z"/>
</svg>
