<?xml version="1.0" encoding="utf-8"?>
<!-- Generator: Adobe Illustrator 19.1.0, SVG Export Plug-In . SVG Version: 6.00 Build 0)  -->
<svg version="1.1" id="Layer_1" xmlns="http://www.w3.org/2000/svg" xmlns:xlink="http://www.w3.org/1999/xlink" x="0px" y="0px"
	 viewBox="-836.2 458 71.2 71" style="enable-background:new -836.2 458 71.2 71;" xml:space="preserve">
<style type="text/css">
	.st0{fill:#ffffff}
</style>
<path class="st0" d="M-769.2,462.1c-2.9-3-6.2-4.1-9.5-4.1c-4,0-7.9,1.9-10.4,4.7c-3.2,3.7-3.7,7.8-7.3,12.3c-2.2,2.6-5.9,3-8.8,3
	c-1.5,0-2.7-0.1-3.7-0.1c-0.5,0-0.8,0.1-1.1,0.1l25,24.9c0.1-0.2,0.1-0.5,0.1-0.8c0-0.9-0.1-2.4-0.1-4c0-3,0.5-6.7,3.3-9
	c4.1-3.4,8.4-3.9,12-7.2c2.8-2.5,4.7-6.3,4.7-10.4C-765,468.4-766.3,465-769.2,462.1z M-808.6,513.6h-19.7l-4.7,9.8h14.9
	L-808.6,513.6z M-794.8,502.6l-4-4.3l-21,21.1c-1.9,1.9-4.5,1.9-9,2.4c0.4-4.4,0.5-7,2.3-8.9l21.1-21.2l-4.3-4.1l-20.9,21
	c-4.6,4.6-4.7,10.3-5.6,20.4c10.2-0.9,15.7-0.9,20.4-5.5L-794.8,502.6z"/>
</svg>
