<?xml version="1.0" encoding="utf-8"?>
<!-- Generator: Adobe Illustrator 19.1.0, SVG Export Plug-In . SVG Version: 6.00 Build 0)  -->
<svg version="1.1" id="Layer_1" xmlns="http://www.w3.org/2000/svg" xmlns:xlink="http://www.w3.org/1999/xlink" x="0px" y="0px"
	 viewBox="-191 -8 448 448" style="enable-background:new -191 -8 448 448;" xml:space="preserve">
<g>
	<g>
		<rect x="-191" y="344" width="272" height="32"/>
		<rect x="177" y="344" width="80" height="32"/>
		<path d="M161,407.5c0,17.9-14.3,32.5-32,32.5l0,0c-17.7,0-32-14.6-32-32.5v-95c0-17.9,14.3-32.5,32-32.5l0,0
			c17.7,0,32,14.6,32,32.5V407.5z"/>
	</g>
	<g>
		<rect x="-191" y="200" width="80" height="32"/>
		<rect x="-15" y="200" width="272" height="32"/>
		<path d="M-31,263.5c0,17.9-14.3,32.5-32,32.5l0,0c-17.7,0-32-14.6-32-32.5v-95c0-17.9,14.3-32.5,32-32.5l0,0
			c17.7,0,32,14.6,32,32.5V263.5z"/>
	</g>
	<g>
		<rect x="-191" y="56" width="272" height="32"/>
		<rect x="177" y="56" width="80" height="32"/>
		<path d="M161,119.5c0,17.9-14.3,32.5-32,32.5l0,0c-17.7,0-32-14.6-32-32.5v-95C97,6.6,111.3-8,129-8l0,0c17.7,0,32,14.6,32,32.5
			V119.5z"/>
	</g>
</g>
</svg>
