<?xml version="1.0" encoding="utf-8"?>
<svg version="1.1" id="Layer_1" xmlns="http://www.w3.org/2000/svg" xmlns:xlink="http://www.w3.org/1999/xlink" x="0px" y="0px"
	 viewBox="-407.6 226.4 57.2 83.3" style="enable-background:new -407.6 226.4 57.2 83.3;" xml:space="preserve">
<g>
	<path d="M-385.2,241.8c0.3,0.5,0.8,0.7,1.3,0.7c0.3,0,0.5-0.1,0.8-0.2c0.7-0.4,0.9-1.4,0.5-2.1c-0.1-0.1-1.7-2.8-0.1-4.9
		c2.9-3.8,0.2-8.1,0.1-8.3c-0.4-0.7-1.4-0.9-2.1-0.5c-0.7,0.4-0.9,1.4-0.5,2.1c0,0,1.7,2.7,0.1,4.8
		C-388,237.2-385.3,241.7-385.2,241.8z"/>
	<path d="M-353.3,261.8c-1.8-2.1-4.3-3.4-7.1-3.7c0-1.5-0.1-2.9-0.1-4c-0.1-2.4-2.1-4.4-4.6-4.4h-25.7v-0.1c0-0.8-0.7-1.5-1.5-1.5
		s-1.5,0.7-1.5,1.5v0.1h-9.3c-2.5,0-4.5,1.9-4.6,4.4c-0.4,11.4-0.4,39.4,8.4,52.4c1.3,2,3.6,3.1,6,3.1h18.3c2.4,0,4.7-1.2,6-3.1
		c1.5-2.3,2.8-5,3.8-7.9h1c5.8,0,10.6-4.3,11.3-10l2.2-18C-350.1,267.5-351.1,264.2-353.3,261.8z M-371.3,304.8
		c-0.8,1.1-2.1,1.8-3.5,1.8h-18.3c-1.4,0-2.7-0.7-3.5-1.8c-8.5-12.7-8.2-42-7.9-50.6c0-0.8,0.7-1.5,1.6-1.5h9.3v12.6h-3.6
		c-0.8,0-1.4,0.6-1.5,1.4l-1,13.8c0,0.4,0.1,0.8,0.4,1.1c0.3,0.3,0.7,0.5,1.1,0.5h12.3c0.4,0,0.8-0.2,1.1-0.5
		c0.3-0.3,0.4-0.7,0.4-1.1l-1-13.8c-0.1-0.8-0.7-1.4-1.5-1.4h-3.6v-12.6h25.7c0.8,0,1.5,0.6,1.6,1.5
		C-363.1,262.9-362.8,292.2-371.3,304.8z M-388.4,268.3l0.8,10.8h-9.1l0.8-10.8H-388.4z M-353.5,270.3l-2.2,18
		c-0.5,4.2-4.1,7.3-8.3,7.3h-0.1c3.1-11,3.8-24.7,3.8-34.4c1.8,0.3,3.5,1.3,4.8,2.7C-353.9,265.6-353.2,268-353.5,270.3z"/>
</g>
</svg>
