<?xml version="1.0" encoding="utf-8"?>
<!-- Generator: Adobe Illustrator 19.1.0, SVG Export Plug-In . SVG Version: 6.00 Build 0)  -->
<svg version="1.1" id="Layer_1" xmlns="http://www.w3.org/2000/svg" xmlns:xlink="http://www.w3.org/1999/xlink" x="0px" y="0px"
	 viewBox="-858 493.5 90 55" style="enable-background:new -858 493.5 90 55;" xml:space="preserve">
<path d="M-770.5,493.5h-85c-1.4,0-2.5,1.1-2.5,2.5v50c0,1.4,1.1,2.5,2.5,2.5h85c1.4,0,2.5-1.1,2.5-2.5v-50
	C-768,494.6-769.1,493.5-770.5,493.5z M-773,543.5h-80v-45h80V543.5z"/>
<path d="M-845.5,533.5c-1.4,0-2.5,1.1-2.5,2.5s1.1,2.5,2.5,2.5h15c1.4,0,2.5-1.1,2.5-2.5s-1.1-2.5-2.5-2.5h-5v-25h5
	c1.4,0,2.5-1.1,2.5-2.5s-1.1-2.5-2.5-2.5h-15c-1.4,0-2.5,1.1-2.5,2.5s1.1,2.5,2.5,2.5h5v25H-845.5z"/>
</svg>
